<?xml version="1.0" encoding="iso-8859-1"?>
<!-- Generator: Adobe Illustrator 18.0.0, SVG Export Plug-In . SVG Version: 6.00 Build 0)  -->
<!DOCTYPE svg PUBLIC "-//W3C//DTD SVG 1.1//EN" "http://www.w3.org/Graphics/SVG/1.1/DTD/svg11.dtd">
<svg version="1.1" id="Capa_1" xmlns="http://www.w3.org/2000/svg" xmlns:xlink="http://www.w3.org/1999/xlink" x="0px" y="0px"
	 viewBox="0 0 371.137 371.137" style="enable-background:new 0 0 371.137 371.137;" xml:space="preserve">
<g>
	<g>
		<path d="M278.71,257.014c-1.209-2.154-3.4-3.574-5.861-3.797c-7.23-0.658-14.15-0.992-20.563-0.992
			c-26.504,0-46.094,5.623-58.395,16.725v-69.205c1.643,0.094,3.301,0.148,4.973,0.148c21.566,0,40.996-7.604,53.303-20.859
			c11.082-11.936,16.197-28.24,14.793-47.152c-1.668-22.441-7.867-33.361-13.336-42.996c-2.457-4.326-4.777-8.414-6.533-13.359
			c-8.797-24.748,9.123-48.604,9.293-48.826c2.01-2.596,2.096-6.197,0.213-8.889c-1.883-2.689-5.297-3.842-8.424-2.846
			c-1.029,0.328-8.627,2.801-19.43,7.52L205.548,1.891c-1.879-1.668-4.471-2.283-6.896-1.643
			c-34.541,9.127-50.49,19.084-56.113,23.295c-1.664-0.685-16.861-6.146-20.303-7.141c-6.756-1.951-8.365-2.416-11.193-0.967
			c-2.092,1.072-3.559,3.062-3.967,5.375c-0.406,2.314,0.295,4.686,1.895,6.406c0.172,0.186,17.047,18.717,8.842,42.725
			c-0.912,2.67-2.262,5.783-3.824,9.391c-5.393,12.449-12.779,29.498-12.832,52.51c-0.043,18.402,5.838,33.604,17.475,45.18
			c18.912,18.813,46.525,21.932,60.262,22.225v46.678c-12.164-12.135-32.324-18.279-60.039-18.279
			c-6.414,0-13.332,0.334-20.564,0.992c-2.459,0.225-4.65,1.644-5.859,3.799c-1.209,2.152-1.281,4.764-0.191,6.98
			c19.918,40.506,42.416,61.045,66.871,61.049c0.004,0,0.006,0,0.008,0c8.037,0,14.775-2.352,19.775-4.953v68.125
			c0,4.142,3.357,7.5,7.5,7.5c4.143,0,7.5-3.358,7.5-7.5v-42.729c4.797,2.256,10.947,4.137,18.135,4.137
			c24.455,0,46.955-20.541,66.873-61.051C279.989,261.778,279.919,259.168,278.71,257.014z M176.307,279.493
			c-2.834,2.133-9.061,5.973-17.191,5.973c-0.002,0-0.004,0-0.004,0c-16.17-0.002-32.715-14.695-48.191-42.648
			c2.727-0.113,5.375-0.172,7.932-0.172c25.262,0,43.123,5.656,51.648,16.357C176.714,266.799,176.714,275.532,176.307,279.493z
			 M198.618,15.797l15.391,13.664c-9.154,4.684-19.225,10.527-29.018,17.564c-0.121-0.098-0.238-0.199-0.367-0.293
			c-8.836-6.357-17.699-11.539-25.816-15.693 M129.208,166.387c-8.693-8.649-13.086-20.26-13.053-34.51
			c0.045-19.92,6.449-34.703,11.596-46.582c1.619-3.738,3.148-7.268,4.254-10.502c5.365-15.697,2.928-29.51-1.121-39.693
			c11.277,4.219,26.525,11.098,41.82,21.592c-14.566,12.596-27.182,28.147-33.248,46.799c-10.314,31.723-4.131,53.391,2.873,65.98
			c1.926,3.465,4.021,6.436,6.094,8.979C141.575,175.793,134.804,171.954,129.208,166.387z M169.18,177.329
			c-0.156-0.107-0.27-0.18-0.434-0.275c-1.279-0.768-31.145-19.352-15.025-68.924c11.875-36.523,55.395-60.484,80.609-71.627
			c-4.385,11.609-7.295,27.391-1.375,44.047c2.197,6.184,4.955,11.043,7.623,15.742c5.145,9.063,10.004,17.621,11.422,36.701
			c1.104,14.854-2.539,26.91-10.826,35.836c-9.479,10.209-24.9,16.064-42.311,16.064
			C187.184,184.893,176.089,182.065,169.18,177.329z M212.026,310.045c-8.143,0-14.379-3.852-17.191-5.969
			c-0.412-3.992-0.4-12.709,5.803-20.494c8.525-10.701,26.385-16.357,51.648-16.357c2.557,0,5.205,0.057,7.932,0.172
			C244.739,295.352,228.194,310.045,212.026,310.045z"/>
	</g>
</g>
<g>
</g>
<g>
</g>
<g>
</g>
<g>
</g>
<g>
</g>
<g>
</g>
<g>
</g>
<g>
</g>
<g>
</g>
<g>
</g>
<g>
</g>
<g>
</g>
<g>
</g>
<g>
</g>
<g>
</g>
</svg>
