<?xml version="1.0" encoding="iso-8859-1"?>
<!-- Generator: Adobe Illustrator 18.0.0, SVG Export Plug-In . SVG Version: 6.00 Build 0)  -->
<!DOCTYPE svg PUBLIC "-//W3C//DTD SVG 1.1//EN" "http://www.w3.org/Graphics/SVG/1.1/DTD/svg11.dtd">
<svg version="1.1" id="Capa_1" xmlns="http://www.w3.org/2000/svg" xmlns:xlink="http://www.w3.org/1999/xlink" x="0px" y="0px"
	 viewBox="0 0 331.014 331.014" style="enable-background:new 0 0 331.014 331.014;" xml:space="preserve">
<g>
	<g>
		<path d="M267.049,134.996c-2.971-45.227-35.615-82.475-78.598-92.42c2.865-4.334,4.535-9.521,4.535-15.096
			c0-15.152-12.328-27.48-27.48-27.48c-15.152,0-27.48,12.328-27.48,27.48c0,5.574,1.672,10.762,4.535,15.098
			c-42.982,9.943-75.625,47.193-78.596,92.418c-15.883,3.357-27.842,17.482-27.842,34.35c0,18.547,14.457,33.771,32.693,35.02
			l25.467,120.697c0.732,3.469,3.795,5.951,7.34,5.951h127.768c3.545,0,6.605-2.483,7.338-5.951l25.467-120.697
			c18.236-1.246,32.695-16.471,32.695-35.02C294.891,152.479,282.932,138.354,267.049,134.996z M165.506,15
			c6.883,0,12.48,5.6,12.48,12.48c0,6.883-5.598,12.48-12.48,12.48c-6.881,0-12.48-5.598-12.48-12.48
			C153.025,20.6,158.625,15,165.506,15z M223.307,316.014H107.705L84.166,204.459h162.68L223.307,316.014z M259.777,189.459H71.236
			c-11.092,0-20.113-9.023-20.113-20.113c0-11.088,9.021-20.111,20.113-20.111c4.143,0,7.5-3.357,7.5-7.5
			c0-47.848,38.926-86.774,86.771-86.774s86.77,38.926,86.77,86.774c0,4.143,3.358,7.5,7.5,7.5c11.09,0,20.113,9.023,20.113,20.111
			C279.891,180.436,270.867,189.459,259.777,189.459z"/>
		<path d="M162,300.799c1.098,0.58,2.303,0.871,3.508,0.871c1.205,0,2.412-0.291,3.51-0.871
			c16.303-8.631,28.088-18.498,35.029-29.326c7.973-12.438,7.668-23.014,6.01-29.695c-3.262-13.127-14.43-22.297-27.16-22.297
			c-6.367,0-12.395,2.402-17.389,6.789c-4.994-4.387-11.019-6.789-17.389-6.789c-12.73,0-23.9,9.17-27.16,22.297
			c-1.66,6.682-1.965,17.256,6.01,29.695C133.91,282.301,145.695,292.168,162,300.799z M135.516,245.393
			c1.57-6.322,6.871-10.912,12.604-10.912c4.234,0,8.047,2.527,11.023,7.307c1.369,2.199,3.775,3.535,6.365,3.535
			c2.59,0,4.998-1.336,6.367-3.535c2.977-4.779,6.787-7.307,11.021-7.307c5.732,0,11.031,4.59,12.602,10.912
			c2.482,9.992-4.238,25.6-29.99,40.225C139.756,270.99,133.035,255.385,135.516,245.393z"/>
	</g>
</g>
<g>
</g>
<g>
</g>
<g>
</g>
<g>
</g>
<g>
</g>
<g>
</g>
<g>
</g>
<g>
</g>
<g>
</g>
<g>
</g>
<g>
</g>
<g>
</g>
<g>
</g>
<g>
</g>
<g>
</g>
</svg>
