<svg xmlns="http://www.w3.org/2000/svg" viewBox="0 0 354.7 354.7"><path d="M349.8 45.3c-2.9-1.1-6.2-0.3-8.3 2.1 -1.1 1.3-27.7 32.1-29.6 77.4 -1.2 28.7-1.2 46.8 9.2 57 4.5 4.5 10.5 6.9 18.6 7.5v113c0 4.1 3.4 7.5 7.5 7.5 4.1 0 7.5-3.4 7.5-7.5V181.9c0 0 0-0.1 0-0.1V52.3C354.7 49.2 352.7 46.4 349.8 45.3zM339.7 174.2c-3.7-0.4-6.4-1.5-8.1-3.1 -5.9-5.8-5.6-23.4-4.7-45.7 0.8-19.1 6.8-35.6 12.8-47.5V174.2z"/><path d="M180.5 58.1c-65.8 0-119.3 53.5-119.3 119.3 0 65.8 53.5 119.3 119.3 119.3 65.8 0 119.3-53.5 119.3-119.3C299.8 111.6 246.3 58.1 180.5 58.1zM180.5 281.6c-57.5 0-104.3-46.8-104.3-104.3 0-57.5 46.8-104.3 104.3-104.3 57.5 0 104.3 46.8 104.3 104.3C284.8 234.8 238 281.6 180.5 281.6z"/><path d="M180.5 92.9c-46.6 0-84.4 37.9-84.4 84.4s37.9 84.4 84.4 84.4 84.4-37.9 84.4-84.4S227.1 92.9 180.5 92.9zM180.5 246.8c-38.3 0-69.4-31.2-69.4-69.4s31.2-69.4 69.4-69.4 69.4 31.2 69.4 69.4S218.8 246.8 180.5 246.8z"/><path d="M52.1 46.7c-4.1 0-7.5 3.4-7.5 7.5v35.5h-7.3V54.2c0-4.1-3.4-7.5-7.5-7.5 -4.1 0-7.5 3.4-7.5 7.5v35.5H15V54.2c0-4.1-3.4-7.5-7.5-7.5 -4.1 0-7.5 3.4-7.5 7.5v43c0 26.2 9.2 46.9 22.3 52.6v150.7c0 4.1 3.4 7.5 7.5 7.5 4.1 0 7.5-3.4 7.5-7.5V149.8c13.1-5.7 22.3-26.5 22.3-52.6V54.2C59.6 50 56.3 46.7 52.1 46.7zM29.8 136.4c-5.2 0-12.9-12.4-14.5-31.7h29C42.7 124 35 136.4 29.8 136.4z"/></svg>